<svg  viewBox="0 0 556 85" fill="none" xmlns="http://www.w3.org/2000/svg">
<path d="M38.7464 82.5625H26.3564V12.8406H-0.000533871V1.68958H65.1033V12.8406H38.7464V82.5625ZM106.798 58.0078V22.8652H118.174V82.5625H107.587V73.101C104.433 79.296 97.4493 83.6889 89.3395 83.6889C77.2874 83.6889 68.9523 76.5928 68.9523 61.2742V22.8652H80.3286V59.0215C80.3286 69.384 85.5098 73.6642 92.9438 73.6642C100.603 73.6642 106.798 67.3566 106.798 58.0078ZM144.223 52.038V82.5625H132.847V22.8652H143.435V35.4805C147.602 27.258 156.613 22.0768 166.413 22.0768V33.9036C153.572 33.2278 144.223 38.8596 144.223 52.038ZM231.283 52.7139C231.283 70.623 220.921 83.6889 204.814 83.6889C196.366 83.6889 189.157 79.4087 184.877 71.862V82.5625H174.289V1.68958H185.666V33.1151C189.833 25.7938 196.704 21.7389 204.814 21.7389C220.808 21.7389 231.283 34.5794 231.283 52.7139ZM219.456 52.7139C219.456 39.1975 212.36 31.7635 202.561 31.7635C193.1 31.7635 185.666 39.0849 185.666 52.4886C185.666 65.667 192.874 73.5516 202.561 73.5516C212.36 73.5516 219.456 66.005 219.456 52.7139ZM266.696 83.6889C249.801 83.6889 237.411 70.3978 237.411 52.7139C237.411 35.03 249.801 21.7389 266.696 21.7389C283.591 21.7389 295.981 35.03 295.981 52.7139C295.981 70.3978 283.591 83.6889 266.696 83.6889ZM266.696 73.6642C276.495 73.6642 284.267 65.7797 284.267 52.7139C284.267 39.648 276.495 31.8761 266.696 31.8761C256.897 31.8761 249.237 39.648 249.237 52.7139C249.237 65.7797 256.897 73.6642 266.696 73.6642Z" fill="currentColor"/>
<path d="M342.609 84.252C320.081 84.252 302.623 65.8923 302.623 42.0134C302.623 18.2471 320.081 3.78926e-05 342.609 3.78926e-05C362.883 3.78926e-05 379.103 13.5164 382.144 33.453H368.965C366.713 20.3872 356.125 11.151 342.721 11.151C326.727 11.151 315.463 24.1042 315.463 42.0134C315.463 60.1479 326.727 73.101 342.721 73.101C356.125 73.101 366.713 63.7522 368.965 50.6864H382.144C379.103 70.7357 362.883 84.252 342.609 84.252ZM404.482 82.5625H392.993V1.68958H404.482V82.5625ZM455.302 82.5625V73.3263C451.585 79.9719 444.94 83.6889 436.154 83.6889C423.764 83.6889 415.654 76.5928 415.654 65.667C415.654 53.9529 425.003 47.8705 442.799 47.8705C446.291 47.8705 449.107 47.9831 453.95 48.5463V44.1535C453.95 35.5931 449.332 30.7498 441.448 30.7498C433.113 30.7498 428.044 35.7058 427.706 44.0409H417.344C417.907 30.6371 427.481 21.7389 441.448 21.7389C456.203 21.7389 464.764 30.074 464.764 44.2661V82.5625H455.302ZM426.467 65.3291C426.467 71.5241 431.085 75.579 438.407 75.579C447.981 75.579 453.95 69.6093 453.95 60.4858V55.6424C449.558 55.0792 446.404 54.9666 443.475 54.9666C432.099 54.9666 426.467 58.3457 426.467 65.3291ZM526.312 82.5625L512.796 38.1838L499.167 82.5625H487.678L470.445 22.8652H481.596L493.648 66.3429L507.164 22.8652H518.428L531.719 66.4555L543.771 22.8652H555.035L537.689 82.5625H526.312Z" fill="var(--primary)"/>
</svg>
